<svg width="375" height="1033" viewBox="0 0 375 1033" fill="none" xmlns="http://www.w3.org/2000/svg">
<path d="M289.486 150.275C243.66 168.864 228.425 175.562 177.5 199.509L150.53 212.273L154.324 201.549L158.281 190.695L175.288 182.865C188.985 176.582 196.235 171.924 210.13 160.154C219.886 151.919 240.937 135.032 256.863 122.459C272.953 109.755 285.924 99.5144 285.337 99.4453C285.043 99.4107 271.934 105.763 255.973 113.566C223.887 129.303 194.584 149.24 175.019 168.684C168.608 175.079 163.25 180.109 162.991 179.78C162.861 179.616 163.5 176.713 164.632 173.42C166.231 168.693 172.349 162.264 189.926 147.054C215.159 125 214.796 125.553 230.911 88.5755C235.025 78.9313 239.475 72.7525 247.2 65.3205C260.646 52.306 253.673 54.6134 234.497 69.486C217.456 82.6735 205.151 96.1202 192.414 115.771C186.641 124.327 181.794 131.353 181.5 131.318C181.206 131.283 181.629 121.354 182.329 109.074C183.244 88.6284 179.138 0.717488 177.245 0.345944C175.646 0.00895912 159.531 67.3706 156.697 86.3995C153.803 104.677 155.506 129.452 160.916 151.834C163.846 163.647 162.93 179.029 159.154 182.01C158.169 182.788 157.183 178.502 156.864 172.357C155.489 152.387 150.641 134.093 141.169 113.318C131.568 92.3801 115.329 62.0225 110.792 56.276C107.647 52.6293 127.291 127.474 135.026 149.086C137.947 157.175 143.253 170.31 147.22 178.372L154.116 193.184L146.797 208.557C142.658 217.156 139.054 223.732 138.666 223.24C138.277 222.747 135.183 206 131.881 185.951C128.579 165.903 123.956 143.167 121.588 135.441C117.007 121.2 79.2069 34.8369 77.2799 34.7592C76.3984 34.6555 90.0794 91.8193 103.216 142.217C106.085 153.278 113.829 178.615 120.69 198.784C132.807 235.061 133.68 241.569 126.879 247.471C125.73 248.378 121.884 236.755 118.124 221.866C108.246 183.022 104.288 173.62 84.2561 138.795C64.4833 104.298 57.7683 86.6784 47.3109 41.3621C44.07 27.1294 41.0106 15.1522 40.6217 14.6597C40.2328 14.1671 40.2157 21.91 40.5443 31.7787C41.5387 54.9814 46.4131 79.3851 55.5565 105.483C59.4369 116.812 64.7001 136.644 67.2324 149.304C73.5242 181.917 89.901 221.227 110.374 253.572L117.65 265.152L112.327 274.952C109.285 280.551 106.252 284.812 105.501 284.872C104.783 284.639 96.5214 263.709 87.4731 238.07C68.6332 185.512 58.3492 164.047 35.8284 130.12C27.221 117.193 12.5989 94.621 3.28293 80.1206C-15.3836 51.4137 -16.2564 49.9705 -16.4638 51.7334C-16.5329 52.3211 -8.03776 72.5336 2.5574 96.4187C13.1526 120.304 25.8391 149.201 30.7305 160.798C44.7652 193.428 63.2764 231.053 81.848 264.366C91.1813 281.252 98.6307 296.426 98.2592 298.319C97.8099 302.138 79.6374 333.81 78.1683 333.638C77.5807 333.568 71.3582 310.495 64.2541 282.255C57.2797 254.178 47.8856 221.349 43.4867 209.363C36.6162 190.534 -27.5335 61.0061 -30.0482 60.8593C-31.5172 60.6865 6.13685 174.884 25.7114 230.061C35.4338 257.567 49.7971 295.002 57.7823 313.218C70.7886 343.195 71.9726 347.058 69.2333 351.353C67.5828 353.989 62.9252 361.93 58.6651 369.025L50.9052 381.815L47.7853 369.086C46.2297 362.052 41.0528 338.953 36.6796 317.885C22.8861 252.814 18.3317 239.618 -11.5265 178.169C-23.1673 154.309 -37.2883 124.946 -43.1562 112.787C-48.8946 100.793 -53.9588 90.6648 -54.5464 90.5956C-55.1341 90.5265 -52.8093 99.8853 -49.2573 111.474C-45.8349 122.898 -36.5013 154.975 -28.7059 182.403C-6.33959 260.696 3.52984 290.751 24.1586 344.562L43.275 394.769L32.5771 412.277C26.5369 421.844 21.1274 429.846 20.4102 429.612C19.6583 429.673 9.84066 396.645 -1.36844 356.453C-21.2371 286.051 -22.4902 282.775 -36.5334 256.548C-52.0976 228.058 -56.652 214.862 -74.0492 146.239C-85.3621 101.865 -86.7967 96.3344 -87.4535 96.8529C-87.7818 97.1122 -86.9521 105.253 -85.5433 114.801C-84.4283 124.316 -82.5699 140.173 -81.913 149.783C-80.1063 173.677 -75.6899 198.175 -68.6464 225.664C-65.2326 238.428 -62.5447 252.297 -62.4755 256.774C-62.1554 273.046 -58.1364 298.392 -52.8732 318.224C-46.2964 342.083 -36.0556 365.182 -11.2272 411.146C-1.3494 429.734 7.13703 446.222 7.51731 448.054C7.76795 449.722 3.99174 457.767 -0.994269 465.968C-10.1713 480.676 -10.1713 480.676 -11.8738 476.157C-12.9368 473.798 -24.3099 438.799 -37.4461 398.53C-61.5406 324.8 -64.7555 316.677 -92.6258 266.185C-97.8888 256.481 -111.474 230.159 -122.665 207.544C-134.021 185.059 -143.605 166.506 -144.357 166.566C-144.944 166.497 -143.596 170.23 -141.505 175.242C-134.418 190.97 -113.522 248.833 -107.221 269.979C-103.799 281.403 -99.8493 302.273 -98.5355 316.428C-94.0666 368.338 -84.3269 393.165 -27.8516 496.767C-24.9133 502.177 -25.38 503.612 -33.9262 516.756C-39.0073 524.499 -43.4921 530.971 -43.9155 530.773C-44.5032 530.703 -48.1069 522.088 -52.2206 511.476C-64.043 480.297 -80.1086 443.407 -89.2432 426.098C-94.0222 417.344 -111.367 391.325 -127.881 368.382C-152.623 334.343 -159.156 324.042 -163.624 312.644C-171.402 292.665 -177.832 261.227 -179.812 233.738C-180.642 220.534 -182.042 209.645 -182.794 209.706C-187.495 209.153 -188.582 266.516 -184.373 292.778C-180.129 318.745 -173.561 333.816 -153.538 364.917C-130.991 399.889 -123.81 416.074 -120.05 441.092C-117.483 458.522 -108.988 473.67 -80.6773 511.554L-54.1814 547.14L-68.1025 567.992C-75.8537 579.443 -82.9397 589.035 -84.0198 589.355C-85.558 589.77 -90.4322 575.494 -122.339 477.015C-139.961 422.962 -150.936 402.309 -201.327 328.018C-222.56 297.073 -240.267 271.607 -240.691 271.408C-241.996 271.106 -241.901 271.564 -225.757 306.527C-209.13 342.441 -195.899 378.105 -179.928 429.729C-156.793 505.282 -153.604 512.36 -116.418 572.288C-104.872 590.626 -95.7288 606.595 -95.8325 607.477C-96.4373 610.086 -115.984 636.979 -117.323 636.971C-117.911 636.902 -130.088 599.873 -144.469 554.989C-173.446 463.259 -173.351 463.717 -197.661 418.409C-207.314 400.444 -226.223 363.666 -239.315 336.955C-252.538 310.08 -263.988 287.136 -264.636 286.315C-265.578 285.46 -261.534 296.659 -255.942 311.169C-229.714 378.149 -216.603 422.437 -214.183 452.51C-209.532 511.739 -200.423 538.13 -154.716 624.381L-134.347 662.671L-145.952 679.03C-152.381 688.104 -157.817 695.061 -158.076 694.732C-158.335 694.404 -161.904 680.43 -166.338 663.675C-178.031 617.468 -183.104 603.616 -201.365 567.659C-232.528 505.906 -234.308 503.314 -291.336 429.732C-324.417 386.819 -342.634 364.42 -340.767 368.81C-339.125 372.578 -331.46 384.65 -323.786 395.382C-298.499 431.124 -283.791 465.62 -268.779 524.132C-256.256 573.415 -236.811 613.235 -184.692 698.155C-172.343 718.523 -172.308 718.229 -183.499 731.062L-188.338 736.748L-196.755 719.673C-201.171 710.366 -212.095 686.74 -220.987 667.374C-245.021 614.653 -251.969 602.814 -286.753 555.381C-304.079 531.746 -326.445 499.03 -336.271 482.533C-353.857 453.507 -383.706 400.845 -388.312 390.622C-389.635 387.935 -390.931 386.293 -391.035 387.175C-391.346 389.819 -363.311 460.437 -356.795 473.417C-348.922 488.79 -335.959 520.401 -325.951 549.281C-302.755 615.458 -286.379 644.64 -230.146 719.916C-215.118 740.301 -202.812 757.238 -202.881 757.826C-202.821 758.577 -224.873 789.048 -226.023 789.956C-226.187 790.085 -228.365 783.276 -230.793 774.798C-233.057 766.191 -238.381 750.671 -242.33 739.93L-249.59 720.607L-286.923 673.321C-326.329 623.408 -351.892 595.082 -403.803 543.847C-446.917 501.392 -449.622 500.329 -421.657 536.087C-399.525 564.457 -391.471 577.022 -367.377 620.368C-357.56 638.204 -286.878 737.52 -258.878 772.984C-234.897 803.359 -235.027 803.195 -244.221 815.518C-250.218 823.451 -252.223 825.3 -253.519 823.659C-254.427 822.509 -261.712 807.205 -269.602 789.447C-283.905 757.827 -284.389 756.877 -303.582 733.917C-325.921 707.31 -330.994 703.585 -362.674 691.816C-381.219 684.869 -432.551 670.49 -450.335 667.207L-458.657 665.781L-450.837 668.935C-446.568 670.629 -427.21 678.268 -407.982 685.742C-359.978 704.346 -354.706 707.647 -337.855 728.992C-327.485 742.127 -322.507 750.457 -316.682 764.249C-309.76 780.106 -306.364 785.421 -285.882 811.362L-262.809 840.588L-268.08 847.415C-270.914 851.252 -275.46 856.972 -277.801 860.42C-280.273 863.704 -282.874 866.824 -283.366 867.213C-283.859 867.602 -287.903 861.466 -292.198 853.663C-304.6 831.204 -331.147 798.591 -348.275 784.661C-367.028 769.349 -372.144 767.258 -392.59 766.342C-414.963 765.349 -420.122 764.891 -429.222 762.48L-436.887 760.536L-427.995 764.71C-402.363 777.257 -381.07 793.762 -365.255 813.792C-358.515 822.33 -343.418 837.064 -324.639 853.422C-308.004 867.741 -294.756 880.469 -294.894 881.645C-295.335 884.125 -343.925 946.475 -362.098 968.019C-368.155 975.2 -373.063 981.474 -373.133 982.062C-373.34 983.825 -346.171 980.765 -343.544 978.691C-341.574 977.135 -267.466 873.849 -261.59 864.412C-260.138 862.2 -256.214 866.832 -235.776 894.407C-217.801 918.862 -207.103 931.738 -193.63 945.089C-157.205 981.098 -154.863 982.713 -99.2969 1009.21C-71.2201 1022.49 -47.732 1033 -47.0752 1032.48C-46.5826 1032.09 -47.6197 1030.78 -49.4431 1029.82C-66.0093 1019.97 -136.388 969.993 -144.148 962.526C-149.636 957.264 -165.07 939.065 -178.681 921.825C-200.847 893.749 -205.617 888.72 -227.032 870.711C-240.029 859.65 -250.883 850.629 -251.013 850.465C-251.531 849.808 -238.379 831.695 -236.08 829.88C-234.931 828.973 -205.575 841.511 -170.853 857.808C-136.26 873.941 -99.5763 890.022 -89.5347 893.289C-79.0696 896.754 -47.4844 903.001 -16.1499 907.58C14.1736 911.892 58.2027 918.709 81.6993 922.813C146.218 933.976 148.179 933.76 100.65 922.51C70.3786 915.226 42.129 903.414 -2.83384 879.209C-41.4796 858.28 -63.8788 851.178 -166.576 827.778L-226.048 814.23L-216.949 801.449C-211.937 794.293 -206.233 786.326 -204.384 783.267C-202.405 780.372 -200.625 777.9 -200.297 777.641C-199.804 777.252 -138.232 799.537 -105.446 812.032C-56.5598 830.74 -17.3181 840.271 10.3523 840.547C36.5537 840.65 132.562 837.346 134.039 836.18C134.696 835.661 105.971 831.687 70.126 827.471L4.93358 819.504L-42.1291 796.692C-95.6731 770.734 -111.522 766.189 -158.152 762.491C-173.5 761.282 -186.263 759.631 -186.16 758.75C-185.883 756.399 -159.605 719.128 -156.615 716.5C-153.824 714.297 -122.394 729.462 -75.6768 755.213C-51.6183 768.468 -19.402 783.279 -3.19889 788.611C3.38606 790.875 28.9653 796.267 53.7322 800.967C78.6634 805.538 118.536 813.505 142.352 818.689C201.599 831.615 207.899 832.505 174.637 822.784C142.94 813.694 114.439 800.214 72.1296 774.981C31.6431 750.708 6.2539 741.168 -90.5758 714.736C-119.569 706.709 -143.273 699.303 -143.299 698.258C-143.644 696.132 -132.532 680.162 -131.097 680.629C-127.64 681.631 -65.6797 704.409 -43.8767 712.782C-6.82119 726.97 27.6418 737.875 44.8732 740.796C52.9013 742.187 72.656 743.915 88.8244 744.476C132.231 746.454 185.464 749.737 231.342 753.495C253.776 755.24 271.802 756.466 271.413 755.974C270.895 755.317 256.143 752.837 238.255 750.435C198.106 744.819 168.698 735.254 111.007 709.106C77.062 693.793 46.4274 687.062 -55.3191 673.307L-120.702 664.425L-110.315 649.561C-104.577 641.3 -98.5453 633.073 -96.7047 631.353C-94.337 628.951 -85.3324 630.904 -50.446 642.007C1.39534 658.382 2.57059 658.52 67.9359 670.081C96.3928 675.067 126.509 681.141 134.986 683.776C154.128 689.454 208.458 709.993 248.21 726.584C264.404 733.255 277.505 738.371 277.704 737.947C278.084 734.715 73.8287 637.71 50.7468 630.08C26.9477 622.216 -39.5063 617.379 -78.3416 620.853C-83.6043 621.277 -88.2103 621.182 -88.7288 620.525C-89.5065 619.54 -62.4679 580.868 -59.02 578.146C-58.0348 577.368 -41.2009 581.136 -21.7658 586.847C103.46 622.577 128.504 624.927 225.756 611.047C292.4 601.608 351.344 590.52 349.27 587.893C349.011 587.565 329.567 588.256 306.036 589.51C273.682 591.066 251.568 590.401 215.195 586.868C188.847 584.215 149.303 581.053 127.224 580.095C90.9377 578.359 -43.6642 562.824 -45.8679 560.033C-46.7752 558.884 -26.3818 527.324 -24.9473 527.791C-19.5981 529.165 105.153 557.541 124.043 561.55C155.594 568.091 195.302 571.123 218.971 568.694C228.909 567.778 264.15 564.476 297.394 561.684C330.508 558.728 362.119 555.893 367.546 555.34L377.354 554.259L370.96 552.911C367.632 552.073 342.563 548.677 315.437 545.04C288.441 541.567 235.658 534.465 198.282 529.324C127.646 519.526 95.4818 516.934 26.9798 515.579C4.83133 515.208 -14.1456 514.465 -15.1222 513.903C-15.969 513.506 -11.9682 506.083 -6.35997 497.657L3.93184 482.335L70.5673 484.364C188.715 487.836 197.149 487.04 267.474 469.099C291.887 462.885 327.948 453.871 347.582 449.031C403.276 435.177 403.078 435.601 357.778 438.315C340.979 439.318 293.623 441.791 252.576 443.814C165.546 448.024 131.516 451.171 70.6877 460.548C46.258 464.377 23.0726 467.756 19.4432 468.223L12.4781 469.191L26.8398 445.859L41.0375 422.655L104.32 422.801C196.353 422.902 195.601 422.963 291.591 397.019C325.89 387.797 354.951 380.045 356.161 379.889C357.207 379.864 357.863 379.345 357.474 378.852C356.437 377.539 177.539 391.646 150.336 395C137.028 396.711 108.969 401.007 87.9696 404.792C66.9706 408.578 49.9035 410.592 50.0763 409.123C50.3873 406.478 67.2377 377.183 69.3722 375.498C70.1931 374.849 102.262 371.919 140.769 368.704C179.241 365.782 214.974 362.091 220.505 360.656C226.035 359.222 244.831 352.645 262.416 346.224C280.002 339.803 312.485 328.283 334.815 320.781C356.98 313.41 375.776 306.833 376.597 306.185C377.253 305.666 365.345 308.138 349.868 311.828C309.262 321.499 278.031 326.166 228.247 330.29C179.837 334.128 147.586 339.866 108.077 351.603C93.741 355.725 81.2713 359.173 80.096 359.035C78.2985 359.122 95.339 325.678 98.2944 323.345C98.9511 322.826 124.859 317.831 156.193 312.282C204.439 303.51 216.252 300.58 235.842 292.31C248.389 286.934 277.676 274.74 300.705 265.087C323.864 255.598 342.738 247.094 342.807 246.507C342.876 245.919 337.017 247.613 329.749 249.886C303.064 258.96 273.778 266.09 219.768 277.014C168.835 287.109 158.655 290.082 107.601 308.801C104.948 309.829 115.689 285.624 119.301 282.772C119.958 282.254 149.331 276.921 184.424 271.07C225.895 264.182 250.791 258.918 255.907 255.945C260.202 253.621 284.51 243.224 309.96 233.26C335.279 223.131 355.163 214.895 353.988 214.757C347.032 214.386 227.856 243.709 184.19 256.595C156.105 264.909 130.639 272.488 127.562 273.318C122.196 274.623 122.23 274.329 128.625 260.485L135.184 246.512L186.393 234.066C222.092 225.606 242.615 219.53 253.988 214.016C263.001 209.566 284.233 199.999 300.911 192.429C317.719 185.022 331.415 178.74 331.614 178.316C331.692 176.389 215.999 212.825 181.744 225.477C160.261 233.376 141.5 239.659 140.291 239.814C139.115 239.676 140.42 234.914 143.168 229.28L148.396 219.022L175.85 212.273C222.972 200.389 238.268 194.444 261.764 178.292C273.249 170.557 294.472 157.266 308.834 149.125C323.361 140.855 335.398 133.483 335.338 132.732C335.407 132.144 314.97 140.017 289.486 150.275Z" fill="#FFF6DA"/>
</svg>
