<svg width="902" height="1225" viewBox="0 0 902 1225" fill="none" xmlns="http://www.w3.org/2000/svg">
<path d="M833.207 324.011C764.263 319.2 741.025 318.251 662.39 317.035L620.694 316.493L632.043 305.36L643.677 294.166L669.835 294.782C690.888 295.308 702.85 293.914 727.522 287.673C744.828 283.327 781.624 275.058 809.34 269.055C837.341 262.991 859.913 258.102 859.218 257.655C858.87 257.431 838.513 257.353 813.684 257.346C763.74 257.394 714.71 264.424 678.208 276.816C666.231 280.906 656.417 283.929 656.293 283.357C656.231 283.071 658.817 279.819 662.26 276.381C667.17 271.429 678.799 267.116 710.205 258.818C755.426 246.631 754.631 247.103 797.573 210.582C808.66 201.002 818.041 195.979 832.304 191.394C857.176 183.315 847.005 181.928 813.799 188.821C784.307 194.909 760.601 204.231 732.542 221.077C720.041 228.271 709.641 234.113 709.293 233.889C708.946 233.665 715.575 221.461 723.996 206.476C737.703 181.372 786.542 68.4925 784.394 66.8638C782.594 65.4588 720.992 140.122 705.747 162.269C690.887 183.434 677.808 215.582 670.853 247.001C667.276 263.629 656.679 282.376 650.107 283.8C648.392 284.171 649.788 278.185 653.16 270.276C663.701 244.362 668.851 218.419 669.72 186.523C670.528 154.342 668.789 106.26 666.623 96.2592C664.914 89.7494 643.605 195.769 640.04 227.65C638.739 239.598 637.333 259.346 637.36 271.903L636.92 294.732L618.29 309.536C607.813 317.787 599.25 323.829 599.065 322.972C598.879 322.115 605.281 299.191 613.45 271.996C621.619 244.801 629.779 213.42 631.551 202.268C634.548 181.577 640.141 49.9466 637.769 48.6654C636.726 47.9939 618.791 128.156 604.327 199.489C601.135 215.137 595.294 251.699 591.52 281.233C584.449 334.214 581.548 342.919 569.386 346.151C567.386 346.584 569.697 329.632 574.122 308.632C585.58 253.803 586.386 239.57 582.628 183.549C578.995 128.1 581.387 101.857 596.093 38.5475C600.766 18.6903 604.282 1.77604 604.096 0.918861C603.911 0.0616858 599.134 9.77099 593.485 22.3612C580.482 52.0988 571.612 85.7273 567.061 124.104C564.974 140.709 559.401 168.837 554.804 186.285C542.671 231.09 539.085 290.495 544.919 343.673L546.941 362.678L534.24 371.711C526.982 376.872 520.558 380.357 519.577 379.971C518.82 379.238 521.304 347.89 525.693 310.147C534.323 232.598 534.597 199.336 527.164 142.915C524.299 121.4 519.807 84.0848 517.018 60.1603C511.217 12.6589 511.008 10.3113 509.665 12.3969C509.217 13.0921 507.467 43.683 506.097 80.1741C504.728 116.665 502.905 160.733 501.922 178.295C499.499 227.876 499.628 286.478 502.48 339.703C503.826 366.632 503.857 390.256 502.228 392.404C499.318 396.922 457.053 425.519 455.315 424.4C454.62 423.953 460.98 391.167 469.407 351.352C477.897 311.824 486.267 264.843 488.107 247.095C491.047 219.237 490.074 17.2382 487.007 15.5093C485.269 14.3901 462.398 180.872 453.081 262.159C448.392 302.659 443.43 358.474 442.266 386.246C440.181 431.866 439.295 437.442 433.218 441.151C429.527 443.446 418.803 450.555 409.097 456.845L391.501 468.134L395.402 450.239C397.77 440.453 405.458 408.277 412.909 379.143C435.559 288.986 437.947 269.624 438.207 174.146C438.248 137.046 438.557 91.5115 438.659 72.6445C438.822 54.0632 438.685 38.2391 437.99 37.7914C437.295 37.3437 434.465 50.5199 431.807 67.2486C429.086 83.6915 421.101 129.692 414.041 168.911C394.031 280.93 387.96 324.721 380.806 404.941L373.966 479.709L349.783 495.117C336.325 503.416 324.62 510.139 323.863 509.405C322.882 509.019 330.843 461.529 341.458 404.19C359.757 303.609 360.195 298.728 358.675 257.179C356.636 211.855 359.023 192.493 379.332 95.6638C392.385 33.0113 393.981 25.1875 392.838 25.435C392.266 25.5588 388.308 36.2872 384.212 49.1395C379.768 61.7679 372.361 82.8153 367.284 95.2818C354.876 126.386 345.373 159.853 337.332 198.686C333.778 216.805 328.633 235.867 325.971 241.529C316.378 262.152 305.856 296.438 300.283 324.566C293.884 358.557 292.553 393.843 295.49 466.792C296.473 496.193 296.999 522.103 296.351 524.636C295.642 526.884 285.96 534.664 274.664 541.897C254.11 554.724 254.11 554.724 254.749 548.005C254.863 544.391 262.082 493.471 270.325 434.852C285.363 327.498 286.316 315.327 282.342 234.825C281.696 219.41 280.809 178.024 280.65 142.761C280.205 107.56 279.569 78.3837 278.588 77.9979C277.893 77.5502 277.293 83.0645 276.84 90.6408C276.076 114.736 266.768 200.209 261.69 230.623C258.969 247.066 251.109 275.69 244.065 294.266C217.792 362.174 214.77 399.322 222.032 564.064C222.398 572.66 220.932 574.174 202.13 585.425C190.996 592.024 181.391 597.395 180.981 596.885C180.286 596.438 181.054 583.409 182.408 567.561C186.716 521.161 189.207 464.984 188.371 437.645C187.748 423.721 181.957 380.405 175.317 341.461C165.164 283.535 163.289 266.592 164.681 249.539C167.189 219.682 178.426 176.268 192.824 140.544C199.893 123.459 204.823 108.93 203.842 108.545C198.28 104.963 161.683 176.304 150.837 211.856C140.214 247.061 139.203 270.014 145.237 321.353C152.061 379.103 151.135 403.832 140.489 437.546C133.006 461.003 134.366 485.236 146.637 550.182L158.042 611.127L127.759 628.753C110.996 638.366 96.2089 646.055 94.6565 645.793C92.4708 645.369 95.1202 624.455 115.552 481.235C126.63 402.558 125.537 369.891 107.909 245.682C100.261 193.795 93.674 150.95 93.2645 150.441C91.8122 149.26 91.6502 149.893 90.441 203.699C89.2554 258.995 83.9604 311.891 72.3015 386.506C54.9397 495.559 54.5959 506.402 64.4689 604.471C67.6997 634.581 69.369 660.244 68.6975 661.287C66.3353 664.191 25.2804 685.945 23.6042 685.112C22.909 684.664 30.366 630.702 39.8812 565.525C59.845 432.577 59.6831 433.21 56.9938 361.404C55.9105 332.922 54.7629 275.14 54.733 233.568C54.6413 191.71 54.3586 155.876 54.0491 154.447C53.3921 152.795 51.5907 169.338 49.6984 190.986C41.4851 291.177 30.7415 354.825 15.3093 394.063C-15.231 471.271 -20.0058 509.995 -15.6028 646.341L-13.5506 706.919L-38.1665 720.327C-51.8103 727.768 -62.9062 733.163 -63.0299 732.591C-63.1537 732.02 -59.052 712.287 -54.3261 688.529C-40.6252 623.344 -38.4853 602.839 -39.3235 546.485C-40.5154 449.826 -41.1579 445.478 -67.5525 318.083C-82.7228 243.895 -91.834 204.588 -92.1869 211.246C-92.4398 216.984 -90.2319 236.846 -87.1905 255.033C-77.4001 315.43 -80.1236 367.769 -97.2165 450.44C-111.765 519.998 -111.814 581.927 -98.5439 720.541C-95.5514 753.694 -95.3275 753.346 -117.257 762.583L-126.825 766.749L-126.903 740.143C-126.731 725.748 -125.932 689.381 -125.201 659.609C-122.99 578.664 -124.44 559.535 -138.972 478.628C-146.207 438.317 -154.188 383.51 -156.391 356.767C-160.639 309.527 -165.766 225.087 -165.269 209.425C-165.278 205.239 -165.897 202.382 -166.569 203.425C-168.583 206.553 -176.764 312.421 -176.556 332.717C-176.115 356.851 -179.257 404.494 -184.432 446.895C-195.96 544.215 -193.325 590.906 -168.969 719.939C-162.624 754.76 -157.579 783.58 -158.027 784.275C-158.412 785.256 -204.811 809.962 -206.811 810.395C-207.096 810.457 -205.648 800.571 -203.49 788.438C-201.046 776.243 -198.196 753.49 -196.557 737.58L-193.802 708.866L-211.624 626.577C-230.436 539.717 -245.127 488.457 -278.825 392.257C-306.871 312.482 -309.614 309.486 -296.471 371.551C-286.113 420.757 -283.719 441.477 -280.096 510.688C-278.727 539.108 -250.998 707.194 -237.632 768.911C-226.183 821.77 -226.245 821.484 -245.356 831.307C-257.757 837.582 -261.409 838.672 -262.028 835.815C-262.461 833.815 -262.207 810.129 -261.205 782.99C-259.739 734.513 -259.762 733.023 -269.754 692.411C-281.455 645.29 -285.536 637.5 -318.076 603.268C-337.089 583.156 -392.696 533.579 -413.004 518.534L-422.575 511.633L-414.695 520.396C-410.376 525.144 -390.768 546.622 -371.222 567.815C-322.387 620.653 -317.797 628.035 -309.753 665.179C-304.802 688.037 -303.67 701.552 -304.829 722.442C-305.879 746.6 -304.879 755.357 -295.102 800.502L-284.087 851.361L-294.897 856.693C-300.812 859.769 -310.031 864.159 -315.089 867.049C-320.208 869.653 -325.389 871.972 -326.247 872.158C-327.104 872.343 -328.413 862.157 -329.011 849.724C-330.785 813.913 -344.08 756.668 -357.026 728.662C-371.161 697.922 -376.299 692.155 -401.403 678.448C-428.879 663.459 -435.074 659.716 -445.016 651.101L-453.444 643.952L-444.845 654.653C-420.376 686.146 -403.783 719.944 -396.233 754.802C-393.016 769.66 -383.113 797.428 -369.587 829.496C-357.498 857.688 -348.686 881.804 -349.581 883.194C-351.658 886.037 -450.949 934.463 -486.994 950.346C-499.009 955.64 -509.024 960.501 -509.472 961.197C-510.815 963.282 -474.83 976.128 -470.258 975.138C-466.829 974.396 -310.362 890.255 -297.19 882.018C-294.009 880.132 -291.928 888.356 -283.208 935.524C-275.664 977.264 -270.142 999.998 -261.43 1025.03C-237.821 1092.61 -235.873 1096.07 -182.392 1163.46C-155.304 1197.38 -132.272 1225 -131.129 1224.75C-130.272 1224.56 -130.767 1222.28 -132.467 1219.95C-147.218 1197.42 -204.867 1091.45 -210.023 1077.31C-213.68 1067.34 -221.877 1035.01 -228.375 1005.01C-238.957 956.152 -241.856 946.909 -257.677 911.15C-267.199 889.282 -275.284 871.291 -275.346 871.005C-275.593 869.862 -247.958 855.202 -243.958 854.336C-241.958 853.903 -212.808 887.672 -179.23 929.457C-145.713 970.956 -109.54 1013.67 -98.9407 1023.94C-87.9319 1034.72 -52.1192 1061.96 -15.5967 1086.95C19.821 1110.99 70.9047 1146.59 97.8798 1166.18C172.015 1219.82 174.61 1220.75 121.855 1177.43C88.3286 1149.7 60.1212 1117.52 18.5443 1059.52C-17.1141 1009.51 -40.8698 986.836 -155.417 894.387L-221.752 840.852L-202.479 830.396C-191.792 824.492 -179.739 817.993 -175.539 815.288C-171.277 812.87 -167.524 810.86 -166.953 810.737C-166.096 810.551 -102.49 876.343 -69.007 912.166C-19.1295 965.676 24.2778 1001.74 58.8437 1019.08C91.6716 1035.31 214.222 1090.13 216.793 1089.57C217.936 1089.32 184.318 1066.69 141.91 1039.38L64.9653 989.34L19.8978 931.797C-31.3739 866.325 -48.4777 850.885 -104.743 817.604C-123.266 806.659 -138.275 796.748 -137.603 795.705C-135.813 792.925 -79.9328 762.276 -74.5659 760.815C-69.7085 759.763 -39.5683 798.104 3.26075 859.123C25.3205 890.54 56.6655 928.919 73.7311 945.564C80.6068 952.45 109.405 974.93 137.609 996.042C166.098 1017.09 211.258 1051.58 237.971 1072.72C304.406 1125.33 311.768 1130.32 275.984 1097.69C241.776 1066.81 214.279 1032.38 176.664 974.721C140.749 919.383 114.736 891.814 9.41823 799.161C-22.0467 771.276 -47.2547 747.422 -46.645 746.093C-45.7734 743.212 -22.0147 729.99 -20.5005 731.457C-16.7769 734.838 47.014 801.488 69.241 825.39C107.043 865.961 143.608 900.817 163.445 915.066C172.668 921.743 196.406 936.046 216.357 946.681C269.632 975.824 334.44 1012.64 389.724 1045.54C416.814 1061.5 438.689 1074.12 438.504 1073.26C438.256 1072.12 421.261 1059.94 400.281 1045.94C353.331 1014.23 322.29 984.162 265.928 915.903C232.721 875.833 198.399 848.568 79.1221 768.809L2.50115 717.501L24.6693 705.222C36.9463 698.375 49.5708 691.752 52.9376 690.724C57.3854 689.163 67.4897 697.144 104.464 732.51C159.484 784.906 160.875 785.802 235.829 840.461C268.489 864.198 302.564 890.32 311.587 898.835C332.129 917.718 387.715 976.872 427.427 1022.11C443.659 1040.43 456.963 1054.9 457.472 1054.49C459.934 1050.67 263.108 803.444 238.819 779.689C213.773 755.201 133.323 708.312 82.4384 688.822C75.5718 686.121 69.8481 683.173 69.6006 682.03C69.2293 680.316 126.924 648.377 132.924 647.078C134.638 646.706 153.456 661.775 174.346 680.882C309.6 802.648 339.594 820.979 470.203 863.286C559.659 892.37 640.464 914.654 639.473 910.082C639.35 909.511 614.517 898.437 584.208 885.558C542.637 867.64 515.285 853.223 471.796 826.447C440.35 806.935 392.651 778.678 365.523 763.914C321.039 739.447 161.611 637.275 160.559 632.418C160.126 630.418 205.11 603.326 206.624 604.792C212.495 609.803 351.669 722.045 372.921 738.68C408.51 766.27 456.494 794.465 487.698 805.953C500.736 810.907 547.002 828.406 590.449 845.32C633.834 861.947 675.258 877.804 682.41 880.442L695.386 885.11L688.186 879.49C684.525 876.395 655.14 856.735 623.322 835.508C591.566 814.567 529.668 773.232 485.908 743.823C403.254 688.139 364.47 665.131 279.31 621.356C251.734 607.287 228.368 594.699 227.487 593.394C226.668 592.375 236.25 585.514 248.465 578.381L270.795 565.468L353.198 608.943C499.38 685.866 510.456 690.048 609.756 710.719C644.218 717.912 695.023 728.745 722.642 734.729C801.066 751.545 800.556 751.954 742.024 727.54C720.319 718.48 659.354 692.499 606.583 669.827C494.747 621.66 450.095 604.708 367.977 579.12C334.958 568.922 303.777 558.923 298.934 557.28L289.596 554.217L321.956 533.748L354.03 513.341L433.38 552.391C548.849 609.045 547.868 608.659 684.302 635.047C733.021 644.537 774.264 652.655 775.878 653.203C777.207 653.812 778.35 653.565 778.164 652.708C777.669 650.422 544.43 558.253 508.22 545.755C490.463 539.729 452.602 527.888 423.916 519.742C395.231 511.597 372.569 503.642 373.688 501.904C375.703 498.776 414.849 472.35 418.563 471.546C419.992 471.236 462.048 487.254 512.362 506.869C562.451 526.83 609.575 544.144 617.399 545.74C625.222 547.336 652.856 550.624 678.875 553.364C704.895 556.105 752.748 561.594 785.386 565.892C817.739 570.252 845.372 573.54 846.801 573.231C847.944 572.984 831.477 568.773 809.782 563.899C752.867 551.099 710.796 537.776 645.769 512.375C582.641 487.46 538.632 474.856 481.827 465.322C461.298 461.692 443.526 458.362 442.136 457.466C439.826 456.471 481.758 424.955 486.902 423.841C488.044 423.593 523.635 433.235 566.378 445.515C632.33 464.135 648.958 467.713 678.63 469.363C697.683 470.321 741.936 473.001 776.774 475.028C811.675 477.341 840.589 478.257 841.037 477.562C841.485 476.867 833.09 475.395 822.57 473.784C783.499 468.786 742.356 459.749 667.846 440.29C597.709 421.679 583.104 419.158 507.517 411.3C503.555 410.961 531.905 387.173 538.191 385.811C539.334 385.564 579.482 396.91 627.129 411.119C683.419 427.943 717.905 436.627 726.153 436.037C732.972 435.757 769.872 437.636 807.94 440.759C845.945 443.595 875.964 445.469 874.574 444.574C866.069 439.835 698.455 403.449 635.726 392.805C595.364 385.992 558.74 379.865 554.368 379.017C546.83 377.359 547.054 377.012 563.584 363.561L580.4 350.047L652.329 365.877C702.338 377.182 731.834 382.161 749.496 382.224C763.544 382.173 796.073 383.204 821.659 383.944C847.307 384.97 868.36 385.496 868.869 385.086C870.15 382.715 702.54 357.396 651.768 352.239C619.948 348.96 592.539 345.324 590.924 344.777C589.534 343.881 594.096 338.705 601.007 333.32L613.869 323.654L652.479 332.044C718.932 346.068 741.784 347.999 781.2 342.154C800.367 339.499 835.173 335.849 858.202 334.451C881.517 332.991 901.155 331.131 901.541 330.15C901.989 329.455 871.498 326.786 833.207 324.011Z" fill="#FFF6DA"/>
</svg>
