<svg width="350" height="351" viewBox="0 0 350 351" fill="none" xmlns="http://www.w3.org/2000/svg">
<path d="M236.918 47.2678L61.9499 123.939C46.6794 130.631 44.3764 151.347 57.8094 161.224L211.683 274.432C225.113 284.312 244.205 275.947 246.043 259.382L267.137 69.5068C268.978 52.9273 252.189 40.5758 236.918 47.2678Z" fill="#FFF1C9"/>
<path d="M294.112 282.898H38.3914C38.2058 282.898 38.0277 282.825 37.8964 282.693C37.7652 282.562 37.6914 282.384 37.6914 282.198C37.6914 282.013 37.7652 281.835 37.8964 281.703C38.0277 281.572 38.2058 281.498 38.3914 281.498H294.112C294.298 281.498 294.476 281.572 294.607 281.703C294.738 281.835 294.812 282.013 294.812 282.198C294.812 282.384 294.738 282.562 294.607 282.693C294.476 282.825 294.298 282.898 294.112 282.898Z" fill="#262626"/>
<path d="M198.18 143.735L206.909 114.888C207.031 114.485 207.24 114.114 207.522 113.802C207.803 113.489 208.15 113.242 208.538 113.079C208.926 112.916 209.345 112.841 209.765 112.858C210.185 112.875 210.596 112.985 210.969 113.18L220.391 118.08C220.799 118.292 221.149 118.599 221.413 118.975C221.676 119.351 221.846 119.785 221.906 120.24C221.966 120.695 221.916 121.159 221.76 121.59C221.604 122.022 221.345 122.41 221.007 122.721L198.18 143.735Z" fill="#D3B970"/>
<path d="M195.944 142.604L220.85 127.099C221.237 126.859 221.673 126.708 222.125 126.659C222.578 126.61 223.036 126.664 223.465 126.816C223.895 126.967 224.284 127.214 224.605 127.537C224.926 127.86 225.17 128.251 225.32 128.681L228.624 138.247C228.78 138.701 228.827 139.186 228.76 139.662C228.693 140.138 228.514 140.591 228.237 140.984C227.961 141.377 227.595 141.698 227.17 141.922C226.745 142.146 226.273 142.266 225.792 142.272L195.944 142.604Z" fill="#D3B970"/>
<path d="M160.727 195.983C172.323 195.983 181.723 186.582 181.723 174.986C181.723 163.39 172.323 153.99 160.727 153.99C149.131 153.99 139.73 163.39 139.73 174.986C139.73 186.582 149.131 195.983 160.727 195.983Z" fill="#262626"/>
<path d="M115.539 83.7133H33.0856C27.8472 83.7133 23.6006 87.9598 23.6006 93.1983V129.703C23.6006 134.942 27.8472 139.188 33.0856 139.188H115.539C120.777 139.188 125.024 134.942 125.024 129.703V93.1983C125.024 87.9598 120.777 83.7133 115.539 83.7133Z" fill="white"/>
<path d="M115.538 139.888H33.0889C30.3876 139.886 27.7977 138.811 25.8876 136.901C23.9775 134.991 22.9032 132.401 22.9004 129.7V93.2018C22.9032 90.5005 23.9775 87.9106 25.8876 86.0005C27.7977 84.0904 30.3876 83.0161 33.0889 83.0133H115.538C118.239 83.017 120.828 84.0917 122.737 86.0018C124.647 87.9118 125.721 90.5011 125.723 93.2018V129.7C125.721 132.401 124.647 134.99 122.737 136.9C120.828 138.81 118.239 139.885 115.538 139.888V139.888ZM33.0889 84.4133C30.7586 84.4152 28.5243 85.3417 26.8765 86.9894C25.2288 88.6372 24.3022 90.8715 24.3004 93.2018V129.7C24.3022 132.03 25.2288 134.264 26.8765 135.912C28.5243 137.56 30.7586 138.486 33.0889 138.488H115.538C117.868 138.486 120.101 137.559 121.749 135.911C123.396 134.263 124.322 132.029 124.323 129.7V93.2018C124.322 90.8721 123.396 88.6383 121.749 86.9907C120.101 85.343 117.868 84.4161 115.538 84.4133H33.0889Z" fill="#262626"/>
<path d="M42.1119 102.431C41.9293 102.431 41.7538 102.36 41.623 102.232C41.4923 102.105 41.4165 101.931 41.4119 101.749C41.3454 98.8998 42.3989 97.1988 43.2984 96.2713C44.2907 95.2221 45.6562 94.6059 47.0994 94.5563H47.1379C48.5317 94.5857 49.8575 95.1644 50.8269 96.1663C51.7439 97.0868 52.8324 98.8018 52.7974 101.738C52.7974 101.924 52.7237 102.102 52.5924 102.233C52.4611 102.365 52.2831 102.438 52.0974 102.438C51.9118 102.438 51.7337 102.365 51.6025 102.233C51.4712 102.102 51.3974 101.924 51.3974 101.738C51.4254 99.2883 50.5644 97.8883 49.8364 97.1708C49.1247 96.437 48.1561 96.0079 47.1344 95.9738H47.1099C46.0443 96.0214 45.0395 96.4836 44.3099 97.2618C43.2914 98.3118 42.7734 99.8588 42.8189 101.731C42.8213 101.823 42.8054 101.915 42.7724 102.001C42.7394 102.086 42.6897 102.165 42.6263 102.231C42.563 102.298 42.4871 102.352 42.403 102.389C42.319 102.426 42.2284 102.447 42.1364 102.449L42.1119 102.431Z" fill="#262626"/>
<path d="M57.1619 129.413H37.1489C36.6588 129.413 36.1744 129.308 35.7281 129.105C35.2818 128.903 34.8839 128.607 34.5611 128.238C34.2383 127.869 33.9981 127.436 33.8565 126.966C33.7148 126.497 33.6751 126.003 33.7399 125.517L36.5399 104.713C36.6502 103.888 37.0567 103.13 37.6838 102.581C38.3108 102.033 39.1158 101.731 39.9489 101.731H53.8999C54.7196 101.731 55.5123 102.024 56.1354 102.557C56.7584 103.089 57.1709 103.827 57.2984 104.636L60.5499 125.444C60.6273 125.934 60.5976 126.434 60.4629 126.912C60.3283 127.389 60.0919 127.831 59.7699 128.209C59.448 128.586 59.0481 128.889 58.5979 129.097C58.1477 129.304 57.6578 129.412 57.1619 129.413Z" fill="#FFE18B"/>
<path d="M111.535 98.5568H73.612C72.1062 98.5568 70.8855 99.7775 70.8855 101.283V103.401C70.8855 104.907 72.1062 106.127 73.612 106.127H111.535C113.04 106.127 114.261 104.907 114.261 103.401V101.283C114.261 99.7775 113.04 98.5568 111.535 98.5568Z" fill="#FFBB45"/>
<path d="M112.452 115.71H72.6985C72.5129 115.71 72.3348 115.637 72.2036 115.505C72.0723 115.374 71.9985 115.196 71.9985 115.01C71.9985 114.825 72.0723 114.647 72.2036 114.515C72.3348 114.384 72.5129 114.31 72.6985 114.31H112.452C112.637 114.31 112.815 114.384 112.947 114.515C113.078 114.647 113.152 114.825 113.152 115.01C113.152 115.196 113.078 115.374 112.947 115.505C112.815 115.637 112.637 115.71 112.452 115.71Z" fill="#262626"/>
<path d="M106.855 124.705H72.6985C72.5129 124.705 72.3348 124.632 72.2036 124.5C72.0723 124.369 71.9985 124.191 71.9985 124.005C71.9985 123.82 72.0723 123.642 72.2036 123.51C72.3348 123.379 72.5129 123.305 72.6985 123.305H106.855C107.041 123.305 107.219 123.379 107.35 123.51C107.481 123.642 107.555 123.82 107.555 124.005C107.555 124.191 107.481 124.369 107.35 124.5C107.219 124.632 107.041 124.705 106.855 124.705Z" fill="#262626"/>
<path d="M223.517 214.099C235.641 214.099 245.469 204.333 245.469 192.287C245.469 180.24 235.641 170.475 223.517 170.475C211.393 170.475 201.565 180.24 201.565 192.287C201.565 204.333 211.393 214.099 223.517 214.099Z" fill="#262626"/>
<path d="M201.565 184.671C213.689 184.671 223.517 174.905 223.517 162.859C223.517 150.812 213.689 141.047 201.565 141.047C189.441 141.047 179.613 150.812 179.613 162.859C179.613 174.905 189.441 184.671 201.565 184.671Z" fill="#262626"/>
<path d="M182.28 159.355H168.938C165.654 159.355 162.401 158.708 159.367 157.451C156.333 156.195 153.576 154.352 151.254 152.03C148.931 149.707 147.09 146.95 145.833 143.915C144.576 140.881 143.93 137.629 143.93 134.344V117.278C143.935 113.355 145.497 109.594 148.273 106.822C151.049 104.05 154.812 102.493 158.735 102.494H176.75C182.854 102.494 188.708 104.919 193.025 109.236C197.341 113.552 199.766 119.406 199.766 125.51V141.901C199.764 144.195 199.31 146.467 198.431 148.586C197.551 150.704 196.262 152.629 194.638 154.25C193.015 155.871 191.087 157.156 188.967 158.032C186.846 158.908 184.574 159.358 182.28 159.355V159.355Z" fill="#262626"/>
<path d="M149.45 108.339C149.45 108.339 141.533 109.508 139.454 126.252C139.208 128.298 138.325 130.214 136.93 131.73L135.656 133.109C135.335 133.456 135.152 133.909 135.143 134.382C135.133 134.854 135.297 135.314 135.604 135.674L137.329 137.704L136.458 148.414C136.458 148.414 134.708 159.828 148.144 159.474H156.691V171.315H183.554V150.962C183.554 150.962 189.675 149.912 190.788 143.885C191.07 142.379 191.006 140.828 190.602 139.35C190.198 137.871 189.465 136.503 188.457 135.349C186.452 133.077 182.917 131.149 177.096 133.865C177.1 133.865 153.979 138.506 149.45 108.339Z" fill="white"/>
<path d="M181.724 146.472C181.17 146.472 180.628 146.308 180.168 146C179.708 145.692 179.349 145.255 179.137 144.743C178.925 144.232 178.869 143.669 178.977 143.126C179.085 142.582 179.352 142.084 179.744 141.692C180.135 141.3 180.634 141.034 181.177 140.926C181.72 140.818 182.283 140.873 182.795 141.085C183.307 141.297 183.744 141.656 184.052 142.116C184.359 142.577 184.524 143.118 184.524 143.672C184.524 144.414 184.229 145.127 183.703 145.652C183.178 146.177 182.466 146.472 181.724 146.472ZM181.724 142.251C181.447 142.251 181.176 142.333 180.946 142.487C180.716 142.641 180.536 142.859 180.43 143.115C180.324 143.371 180.296 143.652 180.35 143.924C180.405 144.196 180.538 144.445 180.734 144.641C180.929 144.837 181.179 144.97 181.45 145.024C181.722 145.078 182.004 145.05 182.259 144.944C182.515 144.838 182.734 144.659 182.888 144.429C183.041 144.198 183.124 143.928 183.124 143.651C183.124 143.28 182.976 142.923 182.714 142.661C182.451 142.398 182.095 142.251 181.724 142.251Z" fill="#262626"/>
<path d="M179.613 144.361C179.431 144.361 179.256 144.29 179.125 144.164C178.995 144.037 178.918 143.864 178.913 143.682C178.864 142.237 179.294 141.068 180.197 140.207C181.989 138.499 184.982 138.716 185.097 138.726C185.283 138.741 185.455 138.828 185.577 138.97C185.698 139.111 185.758 139.295 185.743 139.481C185.729 139.666 185.641 139.839 185.5 139.96C185.358 140.081 185.175 140.141 184.989 140.126V140.126C184.964 140.126 182.483 139.951 181.139 141.232C180.533 141.813 180.257 142.601 180.292 143.644C180.295 143.736 180.28 143.828 180.248 143.914C180.215 144.001 180.166 144.08 180.103 144.147C180.04 144.215 179.964 144.269 179.88 144.307C179.796 144.345 179.705 144.366 179.613 144.368V144.361Z" fill="#262626"/>
<path d="M152.268 133.844C153.182 133.844 153.923 133.103 153.923 132.188C153.923 131.274 153.182 130.533 152.268 130.533C151.353 130.533 150.612 131.274 150.612 132.188C150.612 133.103 151.353 133.844 152.268 133.844Z" fill="#262626"/>
<path d="M146.454 147.805C145.78 147.808 145.112 147.675 144.491 147.413C142.478 146.563 141.127 144.319 141.131 141.834C141.131 141.626 141.178 141.42 141.267 141.232C141.355 141.043 141.484 140.876 141.644 140.743C141.805 140.609 141.992 140.513 142.193 140.459C142.395 140.406 142.605 140.397 142.811 140.434L151.158 141.925C151.372 141.965 151.573 142.052 151.748 142.181C151.923 142.309 152.066 142.476 152.167 142.668C152.268 142.86 152.324 143.073 152.332 143.289C152.339 143.506 152.296 143.722 152.208 143.92C151.137 146.3 148.768 147.805 146.454 147.805ZM142.559 141.796C142.555 141.806 142.555 141.817 142.559 141.827C142.559 143.759 143.563 145.481 145.065 146.118C147.368 147.091 150.021 145.418 150.962 143.318L150.941 143.276L142.59 141.785L142.559 141.796Z" fill="#262626"/>
<path d="M156.471 159.488H169.305C169.419 159.489 169.529 159.529 169.617 159.601C169.705 159.673 169.765 159.774 169.788 159.885C169.811 159.996 169.795 160.112 169.743 160.213C169.691 160.314 169.606 160.395 169.501 160.44L156.471 166.005V159.488Z" fill="#262626"/>
<path d="M156.471 171.042C156.468 170.403 156.671 169.781 157.049 169.267C157.427 168.753 157.961 168.374 158.571 168.186C159.038 168.045 159.517 167.948 160.002 167.899C161.836 167.729 163.672 168.184 165.214 169.19C166.501 168.193 168.083 167.65 169.711 167.646C171.34 167.642 172.924 168.178 174.216 169.169C175.52 168.294 177.043 167.802 178.612 167.748C179.597 167.721 180.578 167.871 181.51 168.189C182.091 168.392 182.594 168.771 182.949 169.273C183.305 169.774 183.495 170.374 183.494 170.989V177.114H156.471V171.042Z" fill="#FFE18B"/>
<path d="M260.669 259.399L106.232 259.27L113.078 196.595C113.727 190.656 116.543 185.164 120.986 181.169C125.43 177.175 131.19 174.959 137.165 174.944L201.008 174.783C208.457 174.765 215.741 176.973 221.927 181.123C228.113 185.273 232.917 191.176 235.725 198.076C248.675 227.854 258.044 249.596 259.066 252.175C259.553 253.44 259.942 254.74 260.232 256.064C260.459 257.163 260.605 258.278 260.669 259.399V259.399Z" fill="#FFE18B"/>
<path d="M213.945 259.319H134.781V205.667H194.523C195.339 205.667 196.134 205.929 196.791 206.413C197.448 206.897 197.932 207.579 198.174 208.359L213.945 259.319Z" fill="#262626"/>
<path d="M194.512 206.367C194.346 206.37 194.184 206.313 194.055 206.206C193.927 206.1 193.841 205.951 193.812 205.786C193.616 204.628 189.112 177.398 198.509 174.125C198.685 174.064 198.877 174.075 199.045 174.156C199.212 174.236 199.341 174.38 199.402 174.556C199.463 174.731 199.452 174.924 199.372 175.091C199.291 175.259 199.147 175.387 198.971 175.448C192.087 177.842 193.91 197.992 195.195 205.548C195.21 205.639 195.208 205.732 195.187 205.822C195.167 205.912 195.129 205.997 195.076 206.072C195.022 206.147 194.955 206.211 194.877 206.26C194.799 206.309 194.712 206.342 194.621 206.357C194.585 206.363 194.549 206.367 194.512 206.367V206.367Z" fill="#262626"/>
<path d="M136.532 206.367C136.374 206.368 136.22 206.314 136.096 206.217C135.973 206.119 135.885 205.982 135.849 205.828C134.021 198.209 133.972 190.271 135.706 182.63C136.334 179.91 137.191 177.247 138.268 174.671C138.342 174.505 138.479 174.375 138.649 174.308C138.818 174.241 139.007 174.242 139.175 174.313C139.344 174.383 139.478 174.516 139.55 174.684C139.621 174.851 139.625 175.04 139.559 175.21C138.514 177.714 137.681 180.302 137.071 182.945C135.384 190.378 135.434 198.099 137.214 205.51C137.235 205.599 137.238 205.692 137.223 205.783C137.207 205.874 137.174 205.961 137.126 206.039C137.077 206.117 137.013 206.184 136.938 206.238C136.863 206.291 136.779 206.329 136.689 206.35C136.638 206.362 136.585 206.368 136.532 206.367V206.367Z" fill="#262626"/>
<path d="M126.525 162.596C125.797 161.655 124.962 160.803 124.036 160.055L123.998 160.02C122.267 158.484 120.763 156.709 119.532 154.749C118.44 152.999 117.782 151.207 116.711 148.449C116.175 147.077 115.797 145.999 115.587 145.397C113.092 138.229 111.454 131.803 108.92 130.879C108.538 130.75 108.142 130.669 107.74 130.638C107.206 130.588 106.666 130.645 106.154 130.807C105.642 130.969 105.167 131.231 104.758 131.579C104.487 131.811 104.251 132.081 104.058 132.381C103.078 133.938 103.565 136.196 104.569 140.644C104.73 141.344 104.874 141.922 104.968 142.307L107.002 151.631C107.002 151.631 102.004 152.761 102.284 156.723C102.284 156.723 97.664 153.986 95.872 159.362C95.872 159.362 90.027 159.835 91.7245 166.247C91.7245 166.247 94.08 174.829 97.5695 175.112C97.5695 175.112 96.9115 188.503 108.038 194.362L126.238 192.073L127.435 186.886C130.585 173.236 129.164 168.809 128.635 167.171C128.125 165.564 127.416 164.028 126.525 162.596V162.596Z" fill="white"/>
<path d="M110.397 186.771C110.287 186.771 110.178 186.745 110.079 186.695C109.981 186.645 109.895 186.573 109.83 186.484C107.729 183.631 106.424 180.27 106.05 176.747C105.256 168.697 109.855 162.747 111.738 160.699L110.278 156.933C110.135 156.552 109.949 156.065 109.743 155.582C108.584 152.891 108.063 150.63 108.196 148.859C108.233 148.324 108.379 147.802 108.624 147.325C108.869 146.848 109.207 146.426 109.62 146.083C110.024 145.746 110.492 145.495 110.997 145.344C111.501 145.194 112.03 145.148 112.553 145.208C115.724 145.558 117.621 149.184 117.702 149.335C117.744 149.417 117.77 149.506 117.777 149.598C117.785 149.689 117.775 149.782 117.747 149.87C117.719 149.957 117.674 150.039 117.614 150.109C117.555 150.18 117.482 150.238 117.401 150.28C117.319 150.322 117.229 150.348 117.138 150.356C117.046 150.363 116.953 150.353 116.866 150.325C116.778 150.297 116.697 150.252 116.626 150.193C116.556 150.133 116.498 150.061 116.456 149.979C116.456 149.947 114.821 146.867 112.399 146.601C112.063 146.562 111.723 146.591 111.398 146.687C111.074 146.784 110.773 146.945 110.513 147.161C110.245 147.384 110.026 147.658 109.867 147.968C109.709 148.278 109.615 148.617 109.592 148.964C109.477 150.507 109.96 152.548 111.027 155.029C111.248 155.537 111.44 156.048 111.587 156.429L113.365 161.014L113.054 161.336C111.538 162.908 106.659 168.651 107.454 176.603C107.798 179.876 109.006 182.998 110.954 185.651C111.063 185.8 111.108 185.987 111.08 186.17C111.052 186.353 110.952 186.518 110.803 186.627C110.686 186.717 110.544 186.767 110.397 186.771V186.771Z" fill="#262626"/>
<path d="M150.045 255.899C145.305 255.587 140.548 256.152 136.013 257.565C119.14 262.882 111.653 278.464 110.064 281.992L150.045 282.198V255.899Z" fill="white"/>
<path d="M150.745 282.902L108.983 282.685L109.424 281.705C112.035 275.923 119.826 261.933 135.803 256.897C140.42 255.457 145.262 254.882 150.087 255.199L150.745 255.241V282.902ZM111.16 281.299L149.345 281.495V256.561C144.906 256.345 140.464 256.915 136.223 258.244C121.625 262.833 114.075 275.219 111.16 281.299Z" fill="#262626"/>
<path d="M104.135 177.044C103.452 177.051 102.776 176.903 102.158 176.61C101.388 176.233 100.736 175.654 100.271 174.934C100.032 175.227 99.7322 175.465 99.393 175.634C98.7497 175.939 98.0134 175.982 97.3385 175.756C97.2521 175.725 97.1727 175.677 97.1049 175.614C97.0372 175.552 96.9823 175.477 96.9434 175.394C96.9046 175.311 96.8826 175.221 96.8786 175.129C96.8746 175.037 96.8888 174.945 96.9203 174.859C96.9517 174.772 96.9999 174.693 97.0621 174.625C97.1242 174.557 97.1991 174.502 97.2825 174.464C97.3659 174.425 97.4561 174.403 97.5479 174.399C97.6398 174.395 97.7316 174.409 97.818 174.44C98.1374 174.536 98.4808 174.513 98.784 174.374C98.9955 174.238 99.1778 174.061 99.3203 173.854C99.4627 173.646 99.5624 173.413 99.6135 173.166L100.313 170.888L100.968 173.177C100.968 173.177 101.434 174.706 102.785 175.343C103.744 175.798 104.962 175.718 106.404 175.109C106.489 175.069 106.581 175.046 106.675 175.043C106.769 175.039 106.863 175.055 106.951 175.088C107.039 175.122 107.12 175.173 107.187 175.238C107.255 175.304 107.309 175.382 107.346 175.469C107.383 175.556 107.402 175.649 107.401 175.743C107.401 175.837 107.382 175.931 107.345 176.017C107.308 176.104 107.254 176.182 107.186 176.247C107.118 176.313 107.038 176.363 106.95 176.397C106.064 176.799 105.107 177.019 104.135 177.044V177.044Z" fill="#262626"/>
<path d="M100.282 174.076C100.133 174.076 99.989 174.028 99.8695 173.94C99.7499 173.852 99.6615 173.728 99.6169 173.586L95.1999 159.565C95.1442 159.388 95.1613 159.196 95.2472 159.031C95.3332 158.866 95.4811 158.742 95.6584 158.687C95.8357 158.631 96.0279 158.648 96.1926 158.734C96.3574 158.82 96.4812 158.968 96.5369 159.145L100.936 173.166C100.964 173.254 100.974 173.346 100.966 173.438C100.958 173.53 100.932 173.619 100.889 173.701C100.847 173.782 100.789 173.855 100.718 173.914C100.647 173.973 100.566 174.017 100.478 174.045C100.414 174.065 100.348 174.075 100.282 174.076Z" fill="#262626"/>
<path d="M107.212 171.175C107.068 171.175 106.927 171.13 106.809 171.046C106.691 170.963 106.602 170.845 106.554 170.709L101.636 156.951C101.605 156.864 101.592 156.772 101.596 156.68C101.601 156.588 101.623 156.498 101.663 156.415C101.702 156.332 101.757 156.257 101.825 156.195C101.894 156.134 101.973 156.086 102.06 156.055C102.147 156.024 102.239 156.01 102.33 156.015C102.422 156.019 102.512 156.042 102.596 156.081C102.679 156.12 102.754 156.176 102.815 156.244C102.877 156.312 102.925 156.392 102.956 156.478L107.856 170.24C107.894 170.346 107.905 170.459 107.89 170.571C107.875 170.682 107.833 170.788 107.768 170.879C107.703 170.971 107.617 171.046 107.517 171.097C107.417 171.148 107.307 171.175 107.194 171.175H107.212Z" fill="#262626"/>
<path d="M290.482 93.7828H244.685C238.043 93.7828 232.659 99.1663 232.659 105.807C232.659 112.448 238.043 117.831 244.685 117.831H290.482C297.124 117.831 302.508 112.448 302.508 105.807C302.508 99.1663 297.124 93.7828 290.482 93.7828Z" fill="white"/>
<path d="M290.5 118.535H244.682C241.306 118.535 238.07 117.194 235.683 114.807C233.296 112.421 231.956 109.184 231.956 105.809C231.956 102.434 233.296 99.1967 235.683 96.8101C238.07 94.4235 241.306 93.0828 244.682 93.0828H290.5C293.875 93.0828 297.112 94.4235 299.499 96.8101C301.885 99.1967 303.226 102.434 303.226 105.809C303.226 109.184 301.885 112.421 299.499 114.807C297.112 117.194 293.875 118.535 290.5 118.535V118.535ZM244.682 94.4828C241.678 94.4828 238.797 95.676 236.673 97.8001C234.549 99.9241 233.356 102.805 233.356 105.809C233.356 108.813 234.549 111.693 236.673 113.817C238.797 115.942 241.678 117.135 244.682 117.135H290.5C293.504 117.135 296.385 115.942 298.509 113.817C300.633 111.693 301.826 108.813 301.826 105.809C301.826 102.805 300.633 99.9241 298.509 97.8001C296.385 95.676 293.504 94.4828 290.5 94.4828H244.682Z" fill="#262626"/>
<path d="M248.552 109.725C250.716 109.725 252.469 107.972 252.469 105.809C252.469 103.646 250.716 101.892 248.552 101.892C246.389 101.892 244.636 103.646 244.636 105.809C244.636 107.972 246.389 109.725 248.552 109.725Z" fill="#F9B800"/>
<path d="M267.582 109.725C269.745 109.725 271.499 107.972 271.499 105.809C271.499 103.646 269.745 101.892 267.582 101.892C265.419 101.892 263.666 103.646 263.666 105.809C263.666 107.972 265.419 109.725 267.582 109.725Z" fill="#F9B800"/>
<path d="M286.612 109.725C288.775 109.725 290.528 107.972 290.528 105.809C290.528 103.646 288.775 101.892 286.612 101.892C284.449 101.892 282.695 103.646 282.695 105.809C282.695 107.972 284.449 109.725 286.612 109.725Z" fill="#F9B800"/>
<path d="M61.6875 159.705H39.445C34.8908 159.705 31.199 163.397 31.199 167.951V190.194C31.199 194.748 34.8908 198.44 39.445 198.44H61.6875C66.2416 198.44 69.9335 194.748 69.9335 190.194V167.951C69.9335 163.397 66.2416 159.705 61.6875 159.705Z" fill="white"/>
<path d="M61.684 199.14H39.445C37.0729 199.136 34.7991 198.192 33.1221 196.514C31.4451 194.837 30.5018 192.562 30.499 190.19V167.944C30.5018 165.572 31.4451 163.298 33.1221 161.62C34.7991 159.943 37.0729 158.999 39.445 158.995H61.684C64.0567 158.998 66.3315 159.941 68.0092 161.619C69.687 163.297 70.6307 165.572 70.6335 167.944V190.18C70.6335 192.554 69.691 194.832 68.0129 196.512C66.3349 198.192 64.0585 199.137 61.684 199.14V199.14ZM39.445 160.405C37.4455 160.407 35.5283 161.202 34.1137 162.615C32.6992 164.028 31.9027 165.945 31.899 167.944V190.18C31.9009 192.181 32.6964 194.1 34.111 195.515C35.5257 196.93 37.4439 197.727 39.445 197.729H61.684C63.6854 197.727 65.6041 196.93 67.0193 195.515C68.4345 194.1 69.2307 192.181 69.2335 190.18V167.944C69.2317 165.943 68.4357 164.024 67.0203 162.608C65.6049 161.193 63.6857 160.397 61.684 160.395L39.445 160.405Z" fill="#262626"/>
<path d="M61.369 172.743C60.941 171.957 60.3022 171.306 59.5245 170.863C55.951 168.865 52.3425 170.104 50.575 172.701C48.783 170.072 45.1045 168.83 41.475 170.951C40.8164 171.334 40.266 171.878 39.8755 172.533C38.234 175.291 38.556 178.059 39.935 180.03C39.9599 180.065 39.9868 180.099 40.0155 180.131V180.149C40.0435 180.187 41.8005 182.224 42.8995 183.337C44.9975 185.381 47.1971 187.318 49.49 189.14C49.7866 189.382 50.1574 189.514 50.54 189.514C50.9225 189.514 51.2934 189.382 51.59 189.14C53.5675 187.562 55.174 186.193 56.3675 185.147C57.2792 184.388 58.1398 183.569 58.9435 182.697C60.6585 180.803 64.435 178.322 61.369 172.743Z" fill="#D3B970"/>
<path d="M314.59 145.159H246.323C239.824 145.159 234.556 150.428 234.556 156.926V231.662C234.556 238.161 239.824 243.429 246.323 243.429H314.59C321.089 243.429 326.357 238.161 326.357 231.662V156.926C326.357 150.428 321.089 145.159 314.59 145.159Z" fill="white"/>
<path d="M314.59 244.129H246.323C243.018 244.125 239.849 242.81 237.512 240.473C235.174 238.136 233.86 234.967 233.856 231.662V156.926C233.86 153.621 235.174 150.452 237.512 148.115C239.849 145.778 243.018 144.463 246.323 144.459H314.59C317.896 144.463 321.065 145.778 323.402 148.115C325.739 150.452 327.054 153.621 327.057 156.926V231.662C327.054 234.967 325.739 238.136 323.402 240.473C321.065 242.81 317.896 244.125 314.59 244.129ZM246.323 145.859C243.389 145.863 240.576 147.03 238.502 149.105C236.427 151.179 235.26 153.992 235.256 156.926V231.662C235.26 234.596 236.427 237.409 238.502 239.483C240.576 241.558 243.389 242.725 246.323 242.729H314.59C317.524 242.725 320.337 241.558 322.412 239.483C324.487 237.409 325.654 234.596 325.657 231.662V156.926C325.655 153.992 324.488 151.179 322.413 149.104C320.338 147.029 317.525 145.862 314.59 145.859H246.323Z" fill="#262626"/>
<path d="M257.492 182.116H248.36C245.71 182.116 243.562 184.264 243.562 186.914V196.046C243.562 198.696 245.71 200.844 248.36 200.844H257.492C260.142 200.844 262.29 198.696 262.29 196.046V186.914C262.29 184.264 260.142 182.116 257.492 182.116Z" fill="#FFF1C9"/>
<path d="M257.492 210.546H248.36C245.71 210.546 243.562 212.695 243.562 215.345V224.476C243.562 227.126 245.71 229.275 248.36 229.275H257.492C260.142 229.275 262.29 227.126 262.29 224.476V215.345C262.29 212.695 260.142 210.546 257.492 210.546Z" fill="#FFF1C9"/>
<path d="M316.123 186.925H273.85C273.665 186.925 273.487 186.851 273.355 186.72C273.224 186.588 273.15 186.41 273.15 186.225C273.15 186.039 273.224 185.861 273.355 185.73C273.487 185.599 273.665 185.525 273.85 185.525H316.123C316.309 185.525 316.487 185.599 316.618 185.73C316.75 185.861 316.823 186.039 316.823 186.225C316.823 186.41 316.75 186.588 316.618 186.72C316.487 186.851 316.309 186.925 316.123 186.925Z" fill="#262626"/>
<path d="M299.908 197.232H273.85C273.665 197.232 273.487 197.159 273.355 197.027C273.224 196.896 273.15 196.718 273.15 196.532C273.15 196.347 273.224 196.169 273.355 196.037C273.487 195.906 273.665 195.832 273.85 195.832H299.908C300.094 195.832 300.272 195.906 300.403 196.037C300.534 196.169 300.608 196.347 300.608 196.532C300.608 196.718 300.534 196.896 300.403 197.027C300.272 197.159 300.094 197.232 299.908 197.232Z" fill="#262626"/>
<path d="M316.123 215.457H273.85C273.665 215.457 273.487 215.383 273.355 215.252C273.224 215.121 273.15 214.943 273.15 214.757C273.15 214.571 273.224 214.393 273.355 214.262C273.487 214.131 273.665 214.057 273.85 214.057H316.123C316.309 214.057 316.487 214.131 316.618 214.262C316.75 214.393 316.823 214.571 316.823 214.757C316.823 214.943 316.75 215.121 316.618 215.252C316.487 215.383 316.309 215.457 316.123 215.457Z" fill="#262626"/>
<path d="M299.908 225.764H273.85C273.665 225.764 273.487 225.69 273.355 225.559C273.224 225.428 273.15 225.25 273.15 225.064C273.15 224.879 273.224 224.701 273.355 224.569C273.487 224.438 273.665 224.364 273.85 224.364H299.908C300.094 224.364 300.272 224.438 300.403 224.569C300.534 224.701 300.608 224.879 300.608 225.064C300.608 225.25 300.534 225.428 300.403 225.559C300.272 225.69 300.094 225.764 299.908 225.764Z" fill="#262626"/>
<path d="M260.263 158.33C259.972 157.791 259.534 157.346 259 157.045C256.55 155.673 254.079 156.524 252.868 158.305C251.639 156.503 249.119 155.652 246.638 157.098C246.188 157.363 245.812 157.737 245.546 158.186C244.419 160.073 244.639 161.97 245.584 163.321C245.601 163.346 245.62 163.369 245.64 163.391V163.391C245.661 163.419 246.865 164.815 247.618 165.578C248.262 166.226 249.851 167.71 252.133 169.551C252.336 169.714 252.588 169.803 252.849 169.803C253.109 169.803 253.362 169.714 253.564 169.551C254.919 168.466 256.014 167.528 256.837 166.814C257.455 166.294 258.04 165.735 258.587 165.141C259.777 163.856 262.367 162.155 260.263 158.33Z" fill="#D3B970"/>
<path d="M230.713 289.356H154.903C153.746 289.356 152.601 289.129 151.532 288.687C150.463 288.244 149.492 287.596 148.674 286.778C147.856 285.96 147.207 284.989 146.764 283.921C146.321 282.852 146.094 281.707 146.094 280.55V266.014C146.094 260.828 148.155 255.855 151.822 252.188C155.489 248.521 160.462 246.461 165.648 246.46H247.73C251.165 246.46 254.458 247.824 256.887 250.253C259.316 252.681 260.68 255.975 260.68 259.41V259.41C260.679 263.344 259.902 267.239 258.396 270.873C256.889 274.507 254.681 277.808 251.899 280.589C249.116 283.37 245.813 285.575 242.178 287.08C238.543 288.584 234.647 289.357 230.713 289.356Z" fill="#FFE18B"/>
<path d="M113.48 290.745C110.342 290.68 107.247 289.998 104.373 288.736C101.498 287.475 98.9001 285.66 96.7271 283.395C94.554 281.129 92.8485 278.458 91.7079 275.534C90.5673 272.609 90.0139 269.489 90.0794 266.35L91.3849 203.543C91.4612 199.936 92.9666 196.507 95.5702 194.01C98.1738 191.512 101.663 190.151 105.269 190.225L125.867 190.656C129.471 190.734 132.897 192.24 135.391 194.843C137.885 197.446 139.243 200.933 139.167 204.537L137.875 267.344C137.81 270.483 137.128 273.578 135.867 276.452C134.605 279.327 132.79 281.925 130.525 284.098C128.26 286.271 125.588 287.976 122.664 289.117C119.739 290.257 116.619 290.811 113.48 290.745Z" fill="#FFE18B"/>
<path d="M225.575 246.456H206.57C206.384 246.456 206.206 246.383 206.075 246.251C205.944 246.12 205.87 245.942 205.87 245.756C205.87 245.571 205.944 245.393 206.075 245.261C206.206 245.13 206.384 245.056 206.57 245.056H225.575C225.761 245.056 225.939 245.13 226.07 245.261C226.201 245.393 226.275 245.571 226.275 245.756C226.275 245.942 226.201 246.12 226.07 246.251C225.939 246.383 225.761 246.456 225.575 246.456Z" fill="#262626"/>
<path d="M203.63 144.694C202.624 144.694 201.64 144.396 200.804 143.837C199.967 143.278 199.315 142.484 198.929 141.555C198.544 140.625 198.443 139.603 198.638 138.616C198.834 137.629 199.317 136.722 200.028 136.01C200.739 135.298 201.644 134.812 202.631 134.615C203.617 134.417 204.64 134.517 205.57 134.9C206.5 135.284 207.296 135.934 207.856 136.77C208.417 137.605 208.717 138.588 208.719 139.594C208.72 140.263 208.589 140.926 208.334 141.545C208.078 142.163 207.704 142.725 207.231 143.199C206.759 143.672 206.197 144.048 205.579 144.305C204.961 144.561 204.299 144.693 203.63 144.694V144.694ZM203.63 135.916C202.9 135.916 202.186 136.132 201.579 136.538C200.973 136.944 200.5 137.521 200.221 138.196C199.942 138.87 199.869 139.613 200.013 140.328C200.156 141.044 200.508 141.702 201.025 142.217C201.542 142.733 202.2 143.083 202.917 143.224C203.633 143.365 204.375 143.291 205.049 143.01C205.723 142.729 206.298 142.255 206.702 141.647C207.107 141.039 207.321 140.324 207.319 139.594C207.315 138.618 206.925 137.683 206.234 136.994C205.542 136.304 204.606 135.917 203.63 135.916V135.916Z" fill="#262626"/>
<path d="M139.265 206.367C139.079 206.367 138.901 206.294 138.77 206.162C138.639 206.031 138.565 205.853 138.565 205.667C138.474 191.699 127.05 191.394 126.571 191.394C126.385 191.394 126.207 191.321 126.076 191.189C125.944 191.058 125.871 190.88 125.871 190.694C125.871 190.509 125.944 190.331 126.076 190.199C126.207 190.068 126.385 189.994 126.571 189.994C126.704 189.994 139.85 190.299 139.951 205.671C139.951 205.856 139.877 206.034 139.746 206.166C139.615 206.297 139.437 206.371 139.251 206.371L139.265 206.367Z" fill="#262626"/>
<path d="M180.187 175.686H158.487C158.301 175.686 158.123 175.613 157.992 175.481C157.861 175.35 157.787 175.172 157.787 174.986C157.787 174.801 157.861 174.623 157.992 174.491C158.123 174.36 158.301 174.286 158.487 174.286H180.187C180.373 174.286 180.551 174.36 180.682 174.491C180.813 174.623 180.887 174.801 180.887 174.986C180.887 175.172 180.813 175.35 180.682 175.481C180.551 175.613 180.373 175.686 180.187 175.686Z" fill="#262626"/>
<path d="M159.621 286.636C159.435 286.636 159.257 286.563 159.126 286.431C158.995 286.3 158.921 286.122 158.921 285.936V254.184C158.921 253.999 158.995 253.821 159.126 253.689C159.257 253.558 159.435 253.484 159.621 253.484C159.807 253.484 159.985 253.558 160.116 253.689C160.247 253.821 160.321 253.999 160.321 254.184V285.936C160.321 286.122 160.247 286.3 160.116 286.431C159.985 286.563 159.807 286.636 159.621 286.636Z" fill="#262626"/>
<path d="M130.777 203.392H99.0289C98.8432 203.392 98.6652 203.319 98.5339 203.187C98.4026 203.056 98.3289 202.878 98.3289 202.692C98.3289 202.507 98.4026 202.329 98.5339 202.197C98.6652 202.066 98.8432 201.992 99.0289 201.992H130.777C130.963 201.992 131.141 202.066 131.272 202.197C131.404 202.329 131.477 202.507 131.477 202.692C131.477 202.878 131.404 203.056 131.272 203.187C131.141 203.319 130.963 203.392 130.777 203.392Z" fill="#262626"/>
<path d="M54.5371 250.856C54.3936 250.856 54.2536 250.812 54.1359 250.73C54.0182 250.648 53.9285 250.532 53.8791 250.397C49.8191 239.323 41.4261 230.332 41.3421 230.244C41.2144 230.109 41.1457 229.929 41.1509 229.743C41.1562 229.557 41.235 229.381 41.3701 229.254C41.5051 229.126 41.6853 229.057 41.8711 229.063C42.0569 229.068 42.2329 229.147 42.3606 229.282C42.4446 229.373 51.0336 238.564 55.1951 249.932C55.2583 250.106 55.2499 250.298 55.1719 250.466C55.0938 250.634 54.9524 250.764 54.7786 250.828C54.7005 250.852 54.6186 250.862 54.5371 250.856V250.856Z" fill="#262626"/>
<path d="M58.4991 251.997C58.3134 251.997 58.1354 251.923 58.0041 251.792C57.8728 251.661 57.7991 251.483 57.7991 251.297V241.71C57.7991 241.525 57.8728 241.347 58.0041 241.215C58.1354 241.084 58.3134 241.01 58.4991 241.01C58.6847 241.01 58.8628 241.084 58.994 241.215C59.1253 241.347 59.1991 241.525 59.1991 241.71V251.297C59.1991 251.483 59.1253 251.661 58.994 251.792C58.8628 251.923 58.6847 251.997 58.4991 251.997Z" fill="#262626"/>
<path d="M79.1244 265.713C79.1235 263.422 78.2127 261.224 76.5924 259.604C74.972 257.983 72.7745 257.073 70.4829 257.072H68.5579V250.544H44.7369V257.075H42.8119C40.52 257.075 38.322 257.986 36.7014 259.606C35.0809 261.227 34.1704 263.425 34.1704 265.717V265.717C34.1732 268.007 35.085 270.201 36.7054 271.819C38.3258 273.437 40.5222 274.345 42.8119 274.344C41.6773 274.344 40.5536 274.567 39.5052 275.001C38.4568 275.435 37.5041 276.071 36.7017 276.873C35.8992 277.675 35.2626 278.628 34.8283 279.676C34.394 280.724 34.1704 281.848 34.1704 282.982V282.982C34.17 284.117 34.3932 285.241 34.8273 286.29C35.2614 287.338 35.8979 288.291 36.7004 289.094C37.503 289.896 38.4558 290.533 39.5044 290.967C40.5531 291.401 41.677 291.624 42.8119 291.624H70.4829C72.7748 291.624 74.9728 290.713 76.5934 289.093C78.214 287.472 79.1244 285.274 79.1244 282.982V282.982C79.1235 280.691 78.2126 278.494 76.5921 276.874C74.9716 275.254 72.7742 274.344 70.4829 274.344C72.773 274.344 74.9694 273.435 76.5897 271.817C78.21 270.199 79.1216 268.003 79.1244 265.713V265.713Z" fill="#F9B800"/>
<path d="M70.847 275.093H61.0855C60.8998 275.093 60.7218 275.02 60.5905 274.888C60.4592 274.757 60.3855 274.579 60.3855 274.393C60.3855 274.208 60.4592 274.03 60.5905 273.898C60.7218 273.767 60.8998 273.693 61.0855 273.693H70.847C71.0326 273.693 71.2107 273.767 71.342 273.898C71.4732 274.03 71.547 274.208 71.547 274.393C71.547 274.579 71.4732 274.757 71.342 274.888C71.2107 275.02 71.0326 275.093 70.847 275.093V275.093Z" fill="#262626"/>
<path d="M47.404 275.044H42.294C42.1083 275.044 41.9303 274.971 41.799 274.839C41.6677 274.708 41.594 274.53 41.594 274.344C41.594 274.159 41.6677 273.981 41.799 273.849C41.9303 273.718 42.1083 273.644 42.294 273.644H47.404C47.5896 273.644 47.7677 273.718 47.899 273.849C48.0302 273.981 48.104 274.159 48.104 274.344C48.104 274.53 48.0302 274.708 47.899 274.839C47.7677 274.971 47.5896 275.044 47.404 275.044Z" fill="#262626"/>
<path d="M56.6509 252.574C63.3488 252.574 68.7784 251.443 68.7784 250.047C68.7784 248.652 63.3488 247.52 56.6509 247.52C49.9531 247.52 44.5234 248.652 44.5234 250.047C44.5234 251.443 49.9531 252.574 56.6509 252.574Z" fill="#262626"/>
<path d="M58.4991 241.71C61.6596 241.71 64.2216 239.148 64.2216 235.988C64.2216 232.827 61.6596 230.265 58.4991 230.265C55.3387 230.265 52.7766 232.827 52.7766 235.988C52.7766 239.148 55.3387 241.71 58.4991 241.71Z" fill="#FFBB45"/>
<path d="M39.7914 233.555C43.178 233.555 45.9234 230.81 45.9234 227.423C45.9234 224.037 43.178 221.291 39.7914 221.291C36.4048 221.291 33.6594 224.037 33.6594 227.423C33.6594 230.81 36.4048 233.555 39.7914 233.555Z" fill="#FFBB45"/>
<path d="M113.614 139.433C112.914 137.522 111.902 135.069 110.481 133.018C109.277 131.268 107.902 130.533 106.39 130.795C105.952 130.847 105.532 130.996 105.159 131.229C104.785 131.463 104.468 131.776 104.23 132.146C103.037 134.061 103.831 137.438 104.23 138.796L104.283 138.971L102.949 139.395L102.886 139.188C102.33 137.27 101.605 133.711 103.044 131.404C103.385 130.865 103.84 130.408 104.377 130.063C104.914 129.719 105.519 129.497 106.152 129.413C108.22 129.063 110.117 130.022 111.636 132.213C113.155 134.404 114.188 136.952 114.93 138.936L113.614 139.433Z" fill="#262626"/>
</svg>
